<svg width="18" height="18" viewBox="0 0 18 18" fill="none" xmlns="http://www.w3.org/2000/svg">
<path fill-rule="evenodd" clip-rule="evenodd" d="M15.1002 2.90226C18.0812 5.88326 18.0812 10.7164 15.1002 13.6974C12.1192 16.6784 7.28602 16.6784 4.30502 13.6974C1.32402 10.7164 1.32402 5.88326 4.30502 2.90226C7.28602 -0.0787467 12.1192 -0.0787467 15.1002 2.90226ZM13.9217 4.08077C11.5915 1.75064 7.81366 1.75064 5.48353 4.08077C3.1534 6.41089 3.1534 10.1888 5.48353 12.5189C7.81366 14.849 11.5915 14.849 13.9217 12.5189C16.2518 10.1888 16.2518 6.41089 13.9217 4.08077Z" fill="#4DB663"/>
<path d="M0.590656 15.9019L4.03188 12.4607C4.81756 11.675 5.99607 12.8535 5.2104 13.6392L1.76917 17.0804C0.983492 17.8661 -0.195019 16.6876 0.590656 15.9019Z" fill="#4DB663"/>
</svg>
