<svg width="16" height="12" viewBox="0 0 16 12" fill="none" xmlns="http://www.w3.org/2000/svg">
<path fill-rule="evenodd" clip-rule="evenodd" d="M14.25 0C13.9 0 13.5875 0.142593 13.3625 0.375926L5.5 8.54259L2.6375 5.56111C2.4125 5.32778 2.1 5.18518 1.75 5.18518C1.0625 5.18518 0.5 5.76852 0.5 6.48148C0.5 6.84444 0.6375 7.16852 0.8625 7.40185L4.6125 11.2907C4.8375 11.5241 5.15 11.6667 5.5 11.6667C5.85 11.6667 6.1625 11.5241 6.3875 11.2907L15.1375 2.21667C15.3625 1.98333 15.5 1.65926 15.5 1.2963C15.5 0.583333 14.9375 0 14.25 0Z" fill="white"/>
</svg>
